<?xml version="1.0" encoding="UTF-8"?>
<svg xmlns="http://www.w3.org/2000/svg" xmlns:xlink="http://www.w3.org/1999/xlink" width="19pt" height="19pt" viewBox="0 0 19 19" version="1.1">
<g id="surface1">
<path style=" stroke:none;fill-rule:nonzero;fill:rgb(0%,0%,0%);fill-opacity:1;" d="M 13.613281 1.636719 C 12.027344 1.625 10.519531 2.324219 9.5 3.535156 C 8.488281 2.316406 6.972656 1.617188 5.386719 1.636719 C 2.410156 1.636719 0 4.046875 0 7.019531 C 0 12.121094 8.898438 17.101562 9.257812 17.292969 C 9.402344 17.390625 9.597656 17.390625 9.742188 17.292969 C 10.101562 17.101562 19 12.195312 19 7.019531 C 19 4.046875 16.589844 1.636719 13.613281 1.636719 Z M 9.5 16.332031 C 8.105469 15.511719 0.960938 11.160156 0.960938 7.019531 C 0.960938 4.578125 2.941406 2.597656 5.386719 2.597656 C 6.882812 2.578125 8.285156 3.332031 9.089844 4.59375 C 9.253906 4.820312 9.570312 4.867188 9.796875 4.707031 C 9.839844 4.675781 9.878906 4.636719 9.910156 4.59375 C 11.246094 2.550781 13.988281 1.972656 16.035156 3.308594 C 17.285156 4.128906 18.039062 5.527344 18.039062 7.019531 C 18.039062 11.207031 10.894531 15.539062 9.5 16.332031 Z M 9.5 16.332031 "/>
</g>
</svg>
